<svg xmlns="http://www.w3.org/2000/svg" viewBox="0 0 120 120">
  <defs>
    <linearGradient id="grad1" x1="0%" y1="0%" x2="100%" y2="100%">
      <stop offset="0%" style="stop-color:#667eea;stop-opacity:1" />
      <stop offset="100%" style="stop-color:#764ba2;stop-opacity:1" />
    </linearGradient>
    <linearGradient id="grad2" x1="0%" y1="0%" x2="100%" y2="100%">
      <stop offset="0%" style="stop-color:#f59e0b;stop-opacity:1" />
      <stop offset="100%" style="stop-color:#ef4444;stop-opacity:1" />
    </linearGradient>
  </defs>
  
  <!-- Background Circle -->
  <circle cx="60" cy="60" r="55" fill="url(#grad1)"/>
  
  <!-- Python Logo Stylized -->
  <g transform="translate(25, 25) scale(0.7)">
    <!-- Snake body -->
    <path d="M50 10 C25 10 10 25 10 45 L10 55 C10 70 25 85 45 85 L55 85 C70 85 85 70 85 55 L85 45 C85 25 70 10 50 10 Z" 
          fill="#fcd34d" opacity="0.9"/>
    
    <!-- Python icon simplified -->
    <text x="35" y="60" font-family="Arial, sans-serif" font-size="45" font-weight="bold" fill="white">🐍</text>
  </g>
  
  <!-- Chart line -->
  <polyline points="25,85 40,75 55,80 70,60 85,65 95,45" 
            fill="none" 
            stroke="#22c55e" 
            stroke-width="4" 
            stroke-linecap="round" 
            stroke-linejoin="round"/>
  
  <!-- Chart dots -->
  <circle cx="40" cy="75" r="3" fill="#22c55e"/>
  <circle cx="55" cy="80" r="3" fill="#22c55e"/>
  <circle cx="70" cy="60" r="3" fill="#22c55e"/>
  <circle cx="85" cy="65" r="3" fill="#22c55e"/>
  <circle cx="95" cy="45" r="4" fill="#22c55e"/>
</svg>
